<?xml version="1.0" encoding="utf-8"?>
<!-- Generator: Adobe Illustrator 21.1.0, SVG Export Plug-In . SVG Version: 6.00 Build 0)  -->
<svg version="1.1" id="Layer_1" xmlns="http://www.w3.org/2000/svg" xmlns:xlink="http://www.w3.org/1999/xlink" x="0px" y="0px"
	 viewBox="0 0 128 30" style="enable-background:new 0 0 128 30;" xml:space="preserve">
<style type="text/css">
	.st0{clip-path:url(#SVGID_2_);fill:#FFFFFF;}
	.st1{clip-path:url(#SVGID_2_);fill:#C80526;}
</style>
<g>
	<defs>
		<rect id="SVGID_1_" x="1.9" y="1.1" width="124.3" height="27.9"/>
	</defs>
	<clipPath id="SVGID_2_">
		<use xlink:href="#SVGID_1_"  style="overflow:visible;"/>
	</clipPath>
	<path class="st0" d="M29.2,15c0,7.4-6,13.4-13.4,13.4S2.4,22.4,2.4,15s6-13.4,13.4-13.4S29.2,7.6,29.2,15"/>
	<path class="st1" d="M26.6,15c0,5.9-4.8,10.8-10.8,10.8S5,20.9,5,15C5,9.1,9.9,4.2,15.8,4.2S26.6,9.1,26.6,15 M29.7,15
		c0-7.7-6.2-13.9-13.9-13.9S1.9,7.3,1.9,15s6.2,13.9,13.9,13.9S29.7,22.7,29.7,15"/>
	<path class="st1" d="M35.8,20.4c0.7,0.7,2.3,2.2,5.4,2.2c2.6,0,5.3-1.3,5.3-3.9c0-2.7-2.6-3.3-4.9-3.7c-1.1-0.2-1.8-0.3-1.8-1
		c0-0.3,0.3-0.8,1.6-0.8c0.8,0,1.8,0.3,2.8,1.1l2-1.9c-0.8-0.5-2.4-1.7-5-1.7c-3.1,0-4.7,1.9-4.7,3.8c0,0.8,0.3,1.6,0.8,2.1
		c0.5,0.5,1.2,0.8,1.9,1c0.5,0.2,1,0.3,1.5,0.3c0.6,0.1,1.4,0.2,1.9,0.4c0.2,0.1,0.4,0.3,0.4,0.6c0,0.8-1.2,1.1-2,1.1
		c-1.2,0-2.4-0.7-3.3-1.5L35.8,20.4z M48.2,11.4h-1.6v2h1.6v5.4c0,1.1,0,1.9,0.5,2.5c0.7,1,2,1.1,3.1,1.1c0.6,0,1-0.1,1.7-0.2v-2.6
		l-1.2,0c-0.9,0-0.9-0.6-0.9-1.3v-5h2.2v-2h-2.2V7.9h-3.3V11.4z M62.7,18.2c-0.4,0.8-1,2-2.8,2c-1.8,0-2.6-1.4-2.6-2.8h8
		c0-1.3-0.1-3.5-1.6-5c-1.4-1.5-3.4-1.6-4-1.6c-4.4,0-5.7,3.5-5.7,6.2c0,3.7,2.3,5.8,5.7,5.8c1.8,0,3.3-0.7,4.2-1.6
		c0.6-0.5,1-1.1,1.4-1.7L62.7,18.2z M57.4,15.3c0.1-0.5,0.2-1,0.7-1.5c0.3-0.3,0.9-0.7,1.7-0.7c0.6,0,1.2,0.2,1.6,0.6
		c0.5,0.5,0.6,1.1,0.6,1.6H57.4z M66.6,9.7h3.3V7.2h-3.3V9.7z M66.6,22.3h3.3V11.1h-3.3V22.3z M75.4,11.2H72v11.2h3.3v-6
		c0-1.4,0-2.8,1.7-2.8c0.6,0,1.2,0.3,1.5,0.9c0.1,0.3,0.2,0.7,0.2,1.7v6.3H82v-7.7c0-1.7-0.3-2.7-1.5-3.4c-0.6-0.3-1.3-0.4-2-0.4
		c-0.8,0-1.5,0.2-2,0.4c-0.6,0.3-0.8,0.5-1.1,0.9V11.2z M84.1,7.2v15.2h3.2l-0.1-1.2c0.4,0.4,1.3,1.5,3.3,1.5c2.2,0,3.6-1.4,4.2-2.7
		c0.5-1,0.7-2.3,0.7-3.5c0-4.5-3-5.7-4.8-5.7c-1.9,0-2.7,0.9-3.2,1.4v-5H84.1z M89.6,13.2c1.9-0.1,2.4,1.6,2.4,3.4
		c0,0.5-0.1,2-0.7,2.7c-0.3,0.3-0.8,0.8-1.7,0.8c-0.8,0-1.5-0.4-1.9-1c-0.4-0.7-0.5-1.7-0.5-2.5C87.2,16,87.2,13.4,89.6,13.2
		 M104.8,18.2c-0.4,0.8-1,2-2.8,2c-1.8,0-2.6-1.4-2.6-2.8h8c0-1.3-0.1-3.5-1.6-5c-1.4-1.5-3.4-1.6-4-1.6c-4.4,0-5.7,3.5-5.7,6.2
		c0,3.7,2.3,5.8,5.7,5.8c1.8,0,3.3-0.7,4.2-1.6c0.6-0.5,1-1.1,1.3-1.7L104.8,18.2z M99.4,15.3c0.1-0.5,0.2-1,0.7-1.5
		c0.3-0.3,0.9-0.7,1.7-0.7c0.6,0,1.2,0.2,1.6,0.6c0.5,0.5,0.6,1.1,0.6,1.6H99.4z M111.8,11.1h-3.2v11.2h3.3V16
		c0-1.4,0.5-1.7,2.1-1.9l1.1-0.2V11c-1.7,0.2-2.5,0.7-3.2,1.3V11.1z M122.9,22.1c0,0.9,0,2.1-2,2.1c-0.5,0-0.8-0.1-1.1-0.2
		c-0.9-0.4-0.9-1.1-1-1.6h-3.4c0,0.6,0,1.7,0.9,2.6c0.6,0.6,2.1,1.4,4.3,1.4c1,0,2.7-0.2,3.8-0.9c1.6-0.9,1.7-2.4,1.7-3.6V11.1H123
		v1.1c-0.5-0.5-1.3-1.2-3-1.2c-3.7,0-4.8,3.2-4.8,5.5c0,1.9,0.6,3.7,2.1,4.6c0.7,0.5,1.6,0.7,2.6,0.7c1.5,0,2.3-0.5,3-0.9V22.1z
		 M120.6,13.4c0.9,0,1.5,0.4,1.8,0.8c0.4,0.5,0.4,1.7,0.4,2.2c0,1.6-0.4,2.9-2.1,2.9c-2,0-2.1-2-2.1-2.9
		C118.7,14.8,119.1,13.5,120.6,13.4"/>
	<path class="st1" d="M35.8,20.4c0.7,0.7,2.3,2.2,5.4,2.2c2.6,0,5.3-1.3,5.3-3.9c0-2.7-2.6-3.3-4.9-3.7c-1.1-0.2-1.8-0.3-1.8-1
		c0-0.3,0.3-0.8,1.6-0.8c0.8,0,1.8,0.3,2.8,1.1l2-1.9c-0.8-0.5-2.4-1.7-5-1.7c-3.1,0-4.7,1.9-4.7,3.8c0,0.8,0.3,1.6,0.8,2.1
		c0.5,0.5,1.2,0.8,1.9,1c0.5,0.2,1,0.3,1.5,0.3c0.6,0.1,1.4,0.2,1.9,0.4c0.2,0.1,0.4,0.3,0.4,0.6c0,0.8-1.2,1.1-2,1.1
		c-1.2,0-2.4-0.7-3.3-1.5L35.8,20.4z M48.2,11.4h-1.6v2h1.6v5.4c0,1.1,0,1.9,0.5,2.5c0.7,1,2,1.1,3.1,1.1c0.6,0,1-0.1,1.7-0.2v-2.6
		l-1.2,0c-0.9,0-0.9-0.6-0.9-1.3v-5h2.2v-2h-2.2V7.9h-3.3V11.4z M62.7,18.2c-0.4,0.8-1,2-2.8,2c-1.8,0-2.6-1.4-2.6-2.8h8
		c0-1.3-0.1-3.5-1.6-5c-1.4-1.5-3.4-1.6-4-1.6c-4.4,0-5.7,3.5-5.7,6.2c0,3.7,2.3,5.8,5.7,5.8c1.8,0,3.3-0.7,4.2-1.6
		c0.6-0.5,1-1.1,1.4-1.7L62.7,18.2z M57.4,15.3c0.1-0.5,0.2-1,0.7-1.5c0.3-0.3,0.9-0.7,1.7-0.7c0.6,0,1.2,0.2,1.6,0.6
		c0.5,0.5,0.6,1.1,0.6,1.6H57.4z M66.6,9.7h3.3V7.2h-3.3V9.7z M66.6,22.3h3.3V11.1h-3.3V22.3z M75.4,11.2H72v11.2h3.3v-6
		c0-1.4,0-2.8,1.7-2.8c0.6,0,1.2,0.3,1.5,0.9c0.1,0.3,0.2,0.7,0.2,1.7v6.3H82v-7.7c0-1.7-0.3-2.7-1.5-3.4c-0.6-0.3-1.3-0.4-2-0.4
		c-0.8,0-1.5,0.2-2,0.4c-0.6,0.3-0.8,0.5-1.1,0.9V11.2z M84.1,7.2v15.2h3.2l-0.1-1.2c0.4,0.4,1.3,1.5,3.3,1.5c2.2,0,3.6-1.4,4.2-2.7
		c0.5-1,0.7-2.3,0.7-3.5c0-4.5-3-5.7-4.8-5.7c-1.9,0-2.7,0.9-3.2,1.4v-5H84.1z M89.6,13.2c1.9-0.1,2.4,1.6,2.4,3.4
		c0,0.5-0.1,2-0.7,2.7c-0.3,0.3-0.8,0.8-1.7,0.8c-0.8,0-1.5-0.4-1.9-1c-0.4-0.7-0.5-1.7-0.5-2.5C87.2,16,87.2,13.4,89.6,13.2
		 M104.8,18.2c-0.4,0.8-1,2-2.8,2c-1.8,0-2.6-1.4-2.6-2.8h8c0-1.3-0.1-3.5-1.6-5c-1.4-1.5-3.4-1.6-4-1.6c-4.4,0-5.7,3.5-5.7,6.2
		c0,3.7,2.3,5.8,5.7,5.8c1.8,0,3.3-0.7,4.2-1.6c0.6-0.5,1-1.1,1.3-1.7L104.8,18.2z M99.4,15.3c0.1-0.5,0.2-1,0.7-1.5
		c0.3-0.3,0.9-0.7,1.7-0.7c0.6,0,1.2,0.2,1.6,0.6c0.5,0.5,0.6,1.1,0.6,1.6H99.4z M111.8,11.1h-3.2v11.2h3.3V16
		c0-1.4,0.5-1.7,2.1-1.9l1.1-0.2V11c-1.7,0.2-2.5,0.7-3.2,1.3V11.1z M122.9,22.1c0,0.9,0,2.1-2,2.1c-0.5,0-0.8-0.1-1.1-0.2
		c-0.9-0.4-0.9-1.1-1-1.6h-3.4c0,0.6,0,1.7,0.9,2.6c0.6,0.6,2.1,1.4,4.3,1.4c1,0,2.7-0.2,3.8-0.9c1.6-0.9,1.7-2.4,1.7-3.6V11.1H123
		v1.1c-0.5-0.5-1.3-1.2-3-1.2c-3.7,0-4.8,3.2-4.8,5.5c0,1.9,0.6,3.7,2.1,4.6c0.7,0.5,1.6,0.7,2.6,0.7c1.5,0,2.3-0.5,3-0.9V22.1z
		 M120.6,13.4c0.9,0,1.5,0.4,1.8,0.8c0.4,0.5,0.4,1.7,0.4,2.2c0,1.6-0.4,2.9-2.1,2.9c-2,0-2.1-2-2.1-2.9
		C118.7,14.8,119.1,13.5,120.6,13.4"/>
	<path class="st1" d="M18.9,18.9c-0.7,0.4-1.4,0.1-1.4-0.8v-6.4c0-0.9,0.6-1.2,1.4-0.8l5.5,3.2c0.7,0.4,0.7,1.2,0,1.6L18.9,18.9z"/>
	<path class="st1" d="M35.8,20.4c0.7,0.7,2.3,2.2,5.4,2.2c2.6,0,5.3-1.3,5.3-3.9c0-2.7-2.6-3.3-4.9-3.7c-1.1-0.2-1.8-0.3-1.8-1
		c0-0.3,0.3-0.8,1.6-0.8c0.8,0,1.8,0.3,2.8,1.1l2-1.9c-0.8-0.5-2.4-1.7-5-1.7c-3.1,0-4.7,1.9-4.7,3.8c0,0.8,0.3,1.6,0.8,2.1
		c0.5,0.5,1.2,0.8,1.9,1c0.5,0.2,1,0.3,1.5,0.3c0.6,0.1,1.4,0.2,1.9,0.4c0.2,0.1,0.4,0.3,0.4,0.6c0,0.8-1.2,1.1-2,1.1
		c-1.2,0-2.4-0.7-3.3-1.5L35.8,20.4z M48.2,11.4h-1.6v2h1.6v5.4c0,1.1,0,1.9,0.5,2.5c0.7,1,2,1.1,3.1,1.1c0.6,0,1-0.1,1.7-0.2v-2.6
		l-1.2,0c-0.9,0-0.9-0.6-0.9-1.3v-5h2.2v-2h-2.2V7.9h-3.3V11.4z M62.7,18.2c-0.4,0.8-1,2-2.8,2c-1.8,0-2.6-1.4-2.6-2.8h8
		c0-1.3-0.1-3.5-1.6-5c-1.4-1.5-3.4-1.6-4-1.6c-4.4,0-5.7,3.5-5.7,6.2c0,3.7,2.3,5.8,5.7,5.8c1.8,0,3.3-0.7,4.2-1.6
		c0.6-0.5,1-1.1,1.4-1.7L62.7,18.2z M57.4,15.3c0.1-0.5,0.2-1,0.7-1.5c0.3-0.3,0.9-0.7,1.7-0.7c0.6,0,1.2,0.2,1.6,0.6
		c0.5,0.5,0.6,1.1,0.6,1.6H57.4z M66.6,9.7h3.3V7.2h-3.3V9.7z M66.6,22.3h3.3V11.1h-3.3V22.3z M75.4,11.2H72v11.2h3.3v-6
		c0-1.4,0-2.8,1.7-2.8c0.6,0,1.2,0.3,1.5,0.9c0.1,0.3,0.2,0.7,0.2,1.7v6.3H82v-7.7c0-1.7-0.3-2.7-1.5-3.4c-0.6-0.3-1.3-0.4-2-0.4
		c-0.8,0-1.5,0.2-2,0.4c-0.6,0.3-0.8,0.5-1.1,0.9V11.2z M84.1,7.2v15.2h3.2l-0.1-1.2c0.4,0.4,1.3,1.5,3.3,1.5c2.2,0,3.6-1.4,4.2-2.7
		c0.5-1,0.7-2.3,0.7-3.5c0-4.5-3-5.7-4.8-5.7c-1.9,0-2.7,0.9-3.2,1.4v-5H84.1z M89.6,13.2c1.9-0.1,2.4,1.6,2.4,3.4
		c0,0.5-0.1,2-0.7,2.7c-0.3,0.3-0.8,0.8-1.7,0.8c-0.8,0-1.5-0.4-1.9-1c-0.4-0.7-0.5-1.7-0.5-2.5C87.2,16,87.2,13.4,89.6,13.2
		 M104.8,18.2c-0.4,0.8-1,2-2.8,2c-1.8,0-2.6-1.4-2.6-2.8h8c0-1.3-0.1-3.5-1.6-5c-1.4-1.5-3.4-1.6-4-1.6c-4.4,0-5.7,3.5-5.7,6.2
		c0,3.7,2.3,5.8,5.7,5.8c1.8,0,3.3-0.7,4.2-1.6c0.6-0.5,1-1.1,1.3-1.7L104.8,18.2z M99.4,15.3c0.1-0.5,0.2-1,0.7-1.5
		c0.3-0.3,0.9-0.7,1.7-0.7c0.6,0,1.2,0.2,1.6,0.6c0.5,0.5,0.6,1.1,0.6,1.6H99.4z M111.8,11.1h-3.2v11.2h3.3V16
		c0-1.4,0.5-1.7,2.1-1.9l1.1-0.2V11c-1.7,0.2-2.5,0.7-3.2,1.3V11.1z M122.9,22.1c0,0.9,0,2.1-2,2.1c-0.5,0-0.8-0.1-1.1-0.2
		c-0.9-0.4-0.9-1.1-1-1.6h-3.4c0,0.6,0,1.7,0.9,2.6c0.6,0.6,2.1,1.4,4.3,1.4c1,0,2.7-0.2,3.8-0.9c1.6-0.9,1.7-2.4,1.7-3.6V11.1H123
		v1.1c-0.5-0.5-1.3-1.2-3-1.2c-3.7,0-4.8,3.2-4.8,5.5c0,1.9,0.6,3.7,2.1,4.6c0.7,0.5,1.6,0.7,2.6,0.7c1.5,0,2.3-0.5,3-0.9V22.1z
		 M120.6,13.4c0.9,0,1.5,0.4,1.8,0.8c0.4,0.5,0.4,1.7,0.4,2.2c0,1.6-0.4,2.9-2.1,2.9c-2,0-2.1-2-2.1-2.9
		C118.7,14.8,119.1,13.5,120.6,13.4"/>
</g>
</svg>
